<svg id="icon_twitter_" data-name="icon_twitter@" xmlns="http://www.w3.org/2000/svg" xmlns:xlink="http://www.w3.org/1999/xlink" width="33" height="33" viewBox="0 0 33 33">
  <metadata><?xpacket begin="﻿" id="W5M0MpCehiHzreSzNTczkc9d"?>
<x:xmpmeta xmlns:x="adobe:ns:meta/" x:xmptk="Adobe XMP Core 5.6-c142 79.160924, 2017/07/13-01:06:39        ">
   <rdf:RDF xmlns:rdf="http://www.w3.org/1999/02/22-rdf-syntax-ns#">
      <rdf:Description rdf:about=""/>
   </rdf:RDF>
</x:xmpmeta>
                                                                                                    
                                                                                                    
                                                                                                    
                                                                                                    
                                                                                                    
                                                                                                    
                                                                                                    
                                                                                                    
                                                                                                    
                                                                                                    
                                                                                                    
                                                                                                    
                                                                                                    
                                                                                                    
                                                                                                    
                                                                                                    
                                                                                                    
                                                                                                    
                                                                                                    
                                                                                                    
                           
<?xpacket end="w"?></metadata>
<defs>
    <style>
      .cls-1 {
        fill: #39c;
        fill-opacity: 0;
        stroke: #fff;
        stroke-linejoin: round;
        stroke-width: 1px;
      }

      .cls-2 {
        fill: #fff;
        fill-rule: evenodd;
        filter: url(#filter);
      }
    </style>
    <filter id="filter" x="1261.81" y="3296" width="21.19" height="17" filterUnits="userSpaceOnUse">
      <feOffset result="offset" dx="0.5" dy="0.866" in="SourceAlpha"/>
      <feGaussianBlur result="blur" stdDeviation="1"/>
      <feFlood result="flood" flood-opacity="0.34"/>
      <feComposite result="composite" operator="in" in2="blur"/>
      <feBlend result="blend" in="SourceGraphic"/>
    </filter>
  </defs>
  <circle id="Inner" class="cls-1" cx="16.5" cy="16.5" r="14"/>
  <path id="logo" class="cls-2" d="M1279.32,3297.66a7.378,7.378,0,0,1-2.06.56,3.574,3.574,0,0,0,1.58-1.96,7.216,7.216,0,0,1-2.28.86,3.613,3.613,0,0,0-2.63-1.11,3.537,3.537,0,0,0-3.5,4.33,10.253,10.253,0,0,1-7.4-3.69,3.469,3.469,0,0,0-.49,1.78,3.543,3.543,0,0,0,1.6,2.94,3.734,3.734,0,0,1-1.63-.44v0.04a3.545,3.545,0,0,0,2.89,3.46,3.754,3.754,0,0,1-.95.13,3.078,3.078,0,0,1-.68-0.07,3.6,3.6,0,0,0,3.36,2.46,7.334,7.334,0,0,1-4.46,1.51,8.108,8.108,0,0,1-.86-0.05,10.324,10.324,0,0,0,5.51,1.59,10.064,10.064,0,0,0,10.22-10.05c0-.16,0-0.31-0.01-0.46A7.24,7.24,0,0,0,1279.32,3297.66Z" transform="translate(-1253.5 -3286.5)"/>
</svg>
