<svg id="icon_google_" data-name="icon_google@" xmlns="http://www.w3.org/2000/svg" xmlns:xlink="http://www.w3.org/1999/xlink" width="33" height="33" viewBox="0 0 33 33">
  <metadata><?xpacket begin="﻿" id="W5M0MpCehiHzreSzNTczkc9d"?>
<x:xmpmeta xmlns:x="adobe:ns:meta/" x:xmptk="Adobe XMP Core 5.6-c142 79.160924, 2017/07/13-01:06:39        ">
   <rdf:RDF xmlns:rdf="http://www.w3.org/1999/02/22-rdf-syntax-ns#">
      <rdf:Description rdf:about=""/>
   </rdf:RDF>
</x:xmpmeta>
                                                                                                    
                                                                                                    
                                                                                                    
                                                                                                    
                                                                                                    
                                                                                                    
                                                                                                    
                                                                                                    
                                                                                                    
                                                                                                    
                                                                                                    
                                                                                                    
                                                                                                    
                                                                                                    
                                                                                                    
                                                                                                    
                                                                                                    
                                                                                                    
                                                                                                    
                                                                                                    
                           
<?xpacket end="w"?></metadata>
<defs>
    <style>
      .cls-1 {
        fill: #d14333;
        fill-opacity: 0;
        stroke: #fff;
        stroke-linejoin: round;
        stroke-width: 1px;
      }

      .cls-2 {
        fill: #fff;
        fill-rule: evenodd;
        filter: url(#filter);
      }
    </style>
    <filter id="filter" x="1215.97" y="3296" width="19.03" height="20" filterUnits="userSpaceOnUse">
      <feOffset result="offset" dx="1" dy="1.732" in="SourceAlpha"/>
      <feGaussianBlur result="blur" stdDeviation="1.414"/>
      <feFlood result="flood" flood-opacity="0.34"/>
      <feComposite result="composite" operator="in" in2="blur"/>
      <feBlend result="blend" in="SourceGraphic"/>
    </filter>
  </defs>
  <circle id="Inner" class="cls-1" cx="16.5" cy="16.5" r="14"/>
  <path id="logo" class="cls-2" d="M1231.74,3299.5h-2.36v2.33h-1.19v-2.33h-2.36v-1.17h2.36V3296h1.19v2.33h2.36v1.17Zm-8.42-2.41a2.743,2.743,0,0,1,.43.34,3.794,3.794,0,0,1,.45.55,3.928,3.928,0,0,1,.37.74,3.285,3.285,0,0,1,.14.99,2.877,2.877,0,0,1-.49,1.67,5.23,5.23,0,0,1-.48.56c-0.18.17-.38,0.34-0.59,0.52a2.656,2.656,0,0,0-.34.4,0.906,0.906,0,0,0-.18.55,0.663,0.663,0,0,0,.19.5,3.452,3.452,0,0,0,.3.34l0.69,0.54a6.49,6.49,0,0,1,1.12,1.1,2.677,2.677,0,0,1,.48,1.61,3.2,3.2,0,0,1-1.3,2.5,6.063,6.063,0,0,1-3.9,1.16,5.026,5.026,0,0,1-3.18-.87,2.3,2.3,0,0,1-1.06-1.89,2.619,2.619,0,0,1,.34-1.2,2.925,2.925,0,0,1,1.22-1.16,6.377,6.377,0,0,1,2.07-.72,15.8,15.8,0,0,1,1.78-.17,3.764,3.764,0,0,1-.39-0.59,1.339,1.339,0,0,1-.2-0.74,0.876,0.876,0,0,1,.08-0.42c0.04-.12.08-0.24,0.12-0.34a5.029,5.029,0,0,1-.65.04,3.2,3.2,0,0,1-2.47-.97,2.874,2.874,0,0,1-.89-2.07,3.483,3.483,0,0,1,1.26-2.6,4.6,4.6,0,0,1,1.8-.89,9,9,0,0,1,1.73-.18h4.05l-1.25.7h-1.25Zm-2.64,8.62a8.649,8.649,0,0,0-1.28.28c-0.11.04-.25,0.09-0.44,0.17a2.507,2.507,0,0,0-.57.35,2,2,0,0,0-.48.59,1.739,1.739,0,0,0-.22.88,1.965,1.965,0,0,0,.97,1.69,4.308,4.308,0,0,0,2.52.68,3.612,3.612,0,0,0,2.19-.6,1.9,1.9,0,0,0,.23-2.78,12.525,12.525,0,0,0-1.67-1.27,3.1,3.1,0,0,0-.45-0.02A5.124,5.124,0,0,0,1220.68,3305.71Zm1.69-7.41a2.427,2.427,0,0,0-.76-0.91,1.97,1.97,0,0,0-1.1-.35,1.81,1.81,0,0,0-1.37.63,2.317,2.317,0,0,0-.44,1.44,4.443,4.443,0,0,0,.64,2.19,2.915,2.915,0,0,0,.81.9,1.8,1.8,0,0,0,1.13.37,1.524,1.524,0,0,0,1.66-1.3,6.069,6.069,0,0,0,.05-0.66A4.915,4.915,0,0,0,1222.37,3298.3Z" transform="translate(-1206.5 -3286.5)"/>
</svg>
